# This file uses centimeters as units for non-parametric coordinates.

mtllib NavPath.mtl
g default
v -0.970790 0.000000 -3.983943
v -2.006571 0.000000 -4.029203
v -1.189152 0.000000 -2.378303
v -0.688456 0.000000 -2.586926
v 0.688456 0.000000 -2.586926
v 1.189152 0.000000 -2.378303
v 2.006571 0.000000 -4.029203
v 0.970790 0.000000 -3.983943
v -1.087497 0.000000 -0.931983
v -0.498422 0.000000 -1.119997
v 0.498422 0.000000 -1.119997
v 1.087497 0.000000 -0.931983
v -0.669746 0.000000 -0.411689
v -0.236315 0.000000 -0.768621
v 0.236315 0.000000 -0.768621
v 0.669746 0.000000 -0.411689
v -0.465547 0.000000 0.586165
v 0.000000 0.000000 0.780242
v 0.465547 0.000000 0.586165
v -0.586801 0.000000 1.942974
v 0.000000 0.000000 1.984193
v 0.586801 0.000000 1.942974
v -0.613352 0.000000 3.045392
v 0.000000 0.000000 3.045897
v 0.613352 0.000000 3.045392
v -0.563282 0.000000 4.547983
v 0.000000 0.000000 4.631433
v 0.563282 0.000000 4.547983
v -3.268030 0.000000 3.086611
v -3.242996 0.000000 4.505248
v 3.242996 0.000000 4.505248
v 3.268030 0.000000 3.086611
v 0.000000 0.000000 -3.922114
v 0.000000 0.000000 -2.670376
v -1.520927 0.000000 -2.252118
v -2.964844 0.000000 -3.970407
v 2.964844 0.000000 -3.970407
v 1.520927 0.000000 -2.252118
v -1.496520 0.000000 1.586546
v -0.963839 0.000000 1.031600
v 0.963839 0.000000 1.031600
v 1.496520 0.000000 1.586546
v -1.360475 0.000000 0.801356
v -1.933871 0.000000 0.794283
v 1.933871 0.000000 0.794283
v 1.360475 0.000000 0.801356
v -1.003926 0.000000 -0.245296
v -1.523332 0.000000 -0.161847
v 1.523332 0.000000 -0.161847
v 1.003926 0.000000 -0.245296
v -1.672652 0.000000 -1.878619
v -2.954600 0.000000 -1.756476
v 2.954600 0.000000 -1.756476
v 1.672652 0.000000 -1.878619
v 0.359434 0.000000 -1.901399
v 0.874711 0.000000 -1.717079
v -0.359434 0.000000 -1.901399
v -0.874711 0.000000 -1.717079
v 2.047188 0.000000 -1.097335
v 1.434405 0.000000 -1.363523
v -2.047188 0.000000 -1.097335
v -1.434405 0.000000 -1.363523
v 1.048887 0.000000 -1.299103
v 0.337857 0.000000 -1.368317
v -1.048887 0.000000 -1.299103
v -0.337857 0.000000 -1.368317
v 0.000000 0.000000 -2.218122
v 0.000000 0.000000 -1.241627
v 0.714270 0.000000 0.114127
v 0.264594 0.000000 0.035887
v -0.714270 0.000000 0.114127
v -0.264594 0.000000 0.035887
v -1.249968 0.000000 -0.884422
v -1.822743 0.000000 -0.696528
v 1.249968 0.000000 -0.884422
v 1.822743 0.000000 -0.696528
vt 0.297076 0.000000
vt 1.000000 0.000000
vt 0.590643 0.846783
vt 0.000000 0.823391
vt 0.000000 0.000000
vt 1.000000 0.000000
vt 1.000000 1.000000
vt 0.000000 1.000000
vt 0.000000 0.000000
vt 1.000000 0.000000
vt 1.000000 1.000000
vt 0.000000 1.000000
vt 0.000000 0.000000
vt 1.000000 0.000000
vt 1.000000 1.000000
vt 0.000000 1.000000
vt 0.000000 0.000000
vt 1.000000 0.000000
vt 1.000000 1.000000
vt 0.000000 1.000000
vt 0.000000 0.000000
vt 1.000000 0.000000
vt 1.000000 1.000000
vt 0.000000 1.000000
vt 0.000000 0.000000
vt 1.000000 0.000000
vt 1.000000 1.000000
vt 0.000000 1.000000
vt 0.000000 0.000000
vt 1.000000 0.000000
vt 1.000000 1.000000
vt 0.000000 1.000000
vt 0.000000 0.000000
vt 1.000000 0.000000
vt 1.000000 1.000000
vt 0.000000 1.000000
vt 0.000000 0.000000
vt 1.000000 0.000000
vt 1.000000 1.000000
vt 0.000000 1.000000
vt 0.000000 0.000000
vt 1.000000 0.000000
vt 1.000000 1.000000
vt 0.000000 1.000000
vt 0.000000 0.000000
vt 1.000000 0.000000
vt 1.000000 1.000000
vt 0.000000 1.000000
vt 0.000000 0.000000
vt 1.000000 0.000000
vt 1.000000 1.000000
vt 0.000000 1.000000
vt 0.000000 0.000000
vt 1.000000 0.000000
vt 1.000000 1.000000
vt 0.000000 1.000000
vt 0.000000 0.000000
vt 1.000000 0.000000
vt 1.000000 1.000000
vt 0.000000 1.000000
vt 0.000000 0.000000
vt 1.000000 0.000000
vt 1.000000 1.000000
vt 0.000000 1.000000
vt 0.000000 0.000000
vt 1.000000 0.000000
vt 1.000000 1.000000
vt 0.000000 1.000000
vt 0.000000 0.000000
vt 1.000000 0.000000
vt 1.000000 1.000000
vt 0.000000 1.000000
vt 0.000000 0.000000
vt 1.000000 0.000000
vt 1.000000 1.000000
vt 0.000000 1.000000
vt 0.000000 0.000000
vt 1.000000 0.000000
vt 1.000000 1.000000
vt 0.000000 1.000000
vt 0.000000 0.000000
vt 1.000000 0.000000
vt 1.000000 1.000000
vt 0.000000 1.000000
vt 0.000000 0.000000
vt 1.000000 0.000000
vt 1.000000 1.000000
vt 0.000000 1.000000
vt 0.000000 0.000000
vt 1.000000 0.000000
vt 1.000000 1.000000
vt 0.000000 1.000000
vt 0.000000 0.000000
vt 1.000000 0.000000
vt 1.000000 1.000000
vt 0.000000 1.000000
vt 0.000000 0.000000
vt 1.000000 0.000000
vt 1.000000 1.000000
vt 0.000000 1.000000
vt 0.000000 0.000000
vt 1.000000 0.000000
vt 1.000000 1.000000
vt 0.000000 1.000000
vt 0.000000 0.000000
vt 1.000000 0.000000
vt 1.000000 1.000000
vt 0.000000 1.000000
vt 0.000000 0.000000
vt 1.000000 0.000000
vt 1.000000 1.000000
vt 0.000000 1.000000
vt 0.000000 0.000000
vt 1.000000 0.000000
vt 1.000000 1.000000
vt 0.000000 1.000000
vt 0.000000 0.000000
vt 1.000000 0.000000
vt 1.000000 1.000000
vt 0.000000 1.000000
vt 0.582473 0.000000
vt 0.582473 1.000000
vt 0.417527 0.000000
vt 0.417527 1.000000
vt 0.481075 0.000000
vt 0.481075 1.000000
vt 0.518925 0.000000
vt 0.518925 1.000000
vt 0.810903 1.000000
vt 0.810903 0.000000
vt 0.189097 1.000000
vt 0.189097 0.000000
vt 0.000000 0.000000
vt 1.000000 0.000000
vt 1.000000 1.000000
vt 0.000000 1.000000
vt 0.000000 0.000000
vt 1.000000 0.000000
vt 1.000000 1.000000
vt 0.000000 1.000000
vt 0.494214 0.000000
vt 0.494214 1.000000
vt 0.505786 0.000000
vt 0.505786 1.000000
vt 0.725040 1.000000
vt 0.725040 0.000000
vt 0.274960 1.000000
vt 0.274960 0.000000
vt 0.000000 0.000000
vt 1.000000 0.000000
vt 1.000000 1.000000
vt 0.000000 1.000000
vt 0.000000 0.000000
vt 1.000000 0.000000
vt 1.000000 1.000000
vt 0.000000 1.000000
vn 0.000000 1.000000 0.000000
vn 0.000000 1.000000 0.000000
vn 0.000000 1.000000 0.000000
vn 0.000000 1.000000 0.000000
vn 0.000000 1.000000 0.000000
vn 0.000000 1.000000 0.000000
vn 0.000000 1.000000 0.000000
vn 0.000000 1.000000 0.000000
vn 0.000000 1.000000 0.000000
vn 0.000000 1.000000 0.000000
vn 0.000000 1.000000 0.000000
vn 0.000000 1.000000 0.000000
vn 0.000000 1.000000 0.000000
vn 0.000000 1.000000 0.000000
vn 0.000000 1.000000 0.000000
vn 0.000000 1.000000 0.000000
vn 0.000000 1.000000 0.000000
vn 0.000000 1.000000 0.000000
vn 0.000000 1.000000 0.000000
vn 0.000000 1.000000 0.000000
vn 0.000000 1.000000 0.000000
vn 0.000000 1.000000 0.000000
vn 0.000000 1.000000 0.000000
vn 0.000000 1.000000 0.000000
vn 0.000000 1.000000 0.000000
vn 0.000000 1.000000 0.000000
vn 0.000000 1.000000 0.000000
vn 0.000000 1.000000 0.000000
vn 0.000000 1.000000 0.000000
vn 0.000000 1.000000 0.000000
vn 0.000000 1.000000 0.000000
vn 0.000000 1.000000 0.000000
vn 0.000000 1.000000 0.000000
vn 0.000000 1.000000 0.000000
vn 0.000000 1.000000 0.000000
vn 0.000000 1.000000 0.000000
vn 0.000000 1.000000 0.000000
vn 0.000000 1.000000 0.000000
vn 0.000000 1.000000 0.000000
vn 0.000000 1.000000 0.000000
vn 0.000000 1.000000 0.000000
vn 0.000000 1.000000 0.000000
vn 0.000000 1.000000 0.000000
vn 0.000000 1.000000 0.000000
vn 0.000000 1.000000 0.000000
vn 0.000000 1.000000 0.000000
vn 0.000000 1.000000 0.000000
vn 0.000000 1.000000 0.000000
vn 0.000000 1.000000 0.000000
vn 0.000000 1.000000 0.000000
vn 0.000000 1.000000 0.000000
vn 0.000000 1.000000 0.000000
vn 0.000000 1.000000 0.000000
vn 0.000000 1.000000 0.000000
vn 0.000000 1.000000 0.000000
vn 0.000000 1.000000 0.000000
vn 0.000000 1.000000 0.000000
vn 0.000000 1.000000 0.000000
vn 0.000000 1.000000 0.000000
vn 0.000000 1.000000 0.000000
vn 0.000000 1.000000 0.000000
vn 0.000000 1.000000 0.000000
vn 0.000000 1.000000 0.000000
vn 0.000000 1.000000 0.000000
vn 0.000000 1.000000 0.000000
vn 0.000000 1.000000 0.000000
vn 0.000000 1.000000 0.000000
vn 0.000000 1.000000 0.000000
vn 0.000000 1.000000 0.000000
vn 0.000000 1.000000 0.000000
vn 0.000000 1.000000 0.000000
vn 0.000000 1.000000 0.000000
vn 0.000000 1.000000 0.000000
vn 0.000000 1.000000 0.000000
vn 0.000000 1.000000 0.000000
vn 0.000000 1.000000 0.000000
vn 0.000000 1.000000 0.000000
vn 0.000000 1.000000 0.000000
vn 0.000000 1.000000 0.000000
vn 0.000000 1.000000 0.000000
vn 0.000000 1.000000 0.000000
vn 0.000000 1.000000 0.000000
vn 0.000000 1.000000 0.000000
vn 0.000000 1.000000 0.000000
vn 0.000000 1.000000 0.000000
vn 0.000000 1.000000 0.000000
vn 0.000000 1.000000 0.000000
vn 0.000000 1.000000 0.000000
vn 0.000000 1.000000 0.000000
vn 0.000000 1.000000 0.000000
vn 0.000000 1.000000 0.000000
vn 0.000000 1.000000 0.000000
vn 0.000000 1.000000 0.000000
vn 0.000000 1.000000 0.000000
vn 0.000000 1.000000 0.000000
vn 0.000000 1.000000 0.000000
vn 0.000000 1.000000 0.000000
vn 0.000000 1.000000 0.000000
vn 0.000000 1.000000 0.000000
vn 0.000000 1.000000 0.000000
vn 0.000000 1.000000 0.000000
vn 0.000000 1.000000 0.000000
vn 0.000000 1.000000 0.000000
vn 0.000000 1.000000 0.000000
vn 0.000000 1.000000 0.000000
vn 0.000000 1.000000 0.000000
vn 0.000000 1.000000 0.000000
vn 0.000000 1.000000 0.000000
vn 0.000000 1.000000 0.000000
vn 0.000000 1.000000 0.000000
vn 0.000000 1.000000 0.000000
vn 0.000000 1.000000 0.000000
vn 0.000000 1.000000 0.000000
vn 0.000000 1.000000 0.000000
vn 0.000000 1.000000 0.000000
vn 0.000000 1.000000 0.000000
vn 0.000000 1.000000 0.000000
vn 0.000000 1.000000 0.000000
vn 0.000000 1.000000 0.000000
vn 0.000000 1.000000 0.000000
vn 0.000000 1.000000 0.000000
vn 0.000000 1.000000 0.000000
vn 0.000000 1.000000 0.000000
vn 0.000000 1.000000 0.000000
vn 0.000000 1.000000 0.000000
vn 0.000000 1.000000 0.000000
vn 0.000000 1.000000 0.000000
vn 0.000000 1.000000 0.000000
vn 0.000000 1.000000 0.000000
vn 0.000000 1.000000 0.000000
vn 0.000000 1.000000 0.000000
vn 0.000000 1.000000 0.000000
vn 0.000000 1.000000 0.000000
vn 0.000000 1.000000 0.000000
vn 0.000000 1.000000 0.000000
vn 0.000000 1.000000 0.000000
vn 0.000000 1.000000 0.000000
vn 0.000000 1.000000 0.000000
vn 0.000000 1.000000 0.000000
vn 0.000000 1.000000 0.000000
vn 0.000000 1.000000 0.000000
vn 0.000000 1.000000 0.000000
vn 0.000000 1.000000 0.000000
vn 0.000000 1.000000 0.000000
vn 0.000000 1.000000 0.000000
vn 0.000000 1.000000 0.000000
vn 0.000000 1.000000 0.000000
vn 0.000000 1.000000 0.000000
vn 0.000000 1.000000 0.000000
vn 0.000000 1.000000 0.000000
vn 0.000000 1.000000 0.000000
vn 0.000000 1.000000 0.000000
vn 0.000000 1.000000 0.000000
vn 0.000000 1.000000 0.000000
vn 0.000000 1.000000 0.000000
vn 0.000000 1.000000 0.000000
s off
g NavPath
usemtl initialShadingGroup
f 1/1/1 2/2/2 3/3/3 4/4/4
f 8/5/5 5/6/6 6/7/7 7/8/8
s 1
f 65/131/9 66/132/10 57/123/11 58/124/12
s 2
f 5/13/13 55/121/14 56/122/15 6/16/16
s off
f 9/17/17 13/18/18 14/19/19 10/20/20
f 16/21/21 12/22/22 11/23/23 15/24/24
s 3
f 13/25/25 71/143/26 72/144/27 14/28/28
s 4
f 19/29/29 69/141/30 70/142/31 18/32/32
s off
f 17/33/33 20/34/34 21/35/35 18/36/36
f 22/37/37 19/38/38 18/39/39 21/40/40
f 24/41/41 21/42/42 20/43/43 23/44/44
f 21/45/45 24/46/46 25/47/47 22/48/48
f 27/49/49 24/50/50 23/51/51 26/52/52
f 24/53/53 27/54/54 28/55/55 25/56/56
f 30/57/57 26/58/58 23/59/59 29/60/60
f 28/61/61 31/62/62 32/63/63 25/64/64
f 34/65/65 33/66/66 1/67/67 4/68/68
f 33/69/69 34/70/70 5/71/71 8/72/72
f 36/73/73 35/74/74 3/75/75 2/76/76
f 38/77/77 37/78/78 7/79/79 6/80/80
f 40/81/81 39/82/82 20/83/83 17/84/84
f 42/85/85 41/86/86 19/87/87 22/88/88
f 44/89/89 39/90/90 40/91/91 43/92/92
f 42/93/93 45/94/94 46/95/95 41/96/96
f 48/97/97 44/98/98 43/99/99 47/100/100
f 45/101/101 49/102/102 50/103/103 46/104/104
s 5
f 52/105/105 61/127/106 62/128/107 51/108/108
s 6
f 75/147/109 76/148/110 59/125/111 60/126/112
s off
f 35/113/113 36/114/114 52/115/115 51/116/116
f 37/117/117 38/118/118 54/119/119 53/120/120
s 2
f 63/129/121 64/130/122 11/14/123 12/15/124
s 1
f 58/124/12 57/123/11 4/10/125 3/11/126
s 6
f 60/126/112 59/125/111 53/110/127 54/111/128
s 5
f 73/145/129 74/146/130 48/106/131 47/107/132
s 2
f 56/122/15 55/121/14 64/130/122 63/129/121
s 1
f 10/9/133 66/132/10 65/131/9 9/12/134
s off
f 64/133/135 55/134/136 67/135/137 68/136/138
f 57/137/139 66/138/140 68/139/141 67/140/142
s 4
f 70/142/31 69/141/30 16/30/143 15/31/144
s 3
f 72/144/27 71/143/26 17/26/145 18/27/146
s 5
f 62/128/107 61/127/106 74/146/130 73/145/129
s 6
f 49/109/147 76/148/110 75/147/109 50/112/148
s off
f 75/149/149 60/150/150 63/151/151 12/152/152
f 62/153/153 73/154/154 9/155/155 65/156/156
