# This file uses centimeters as units for non-parametric coordinates.

mtllib RoadWayMesh.mtl
g default
v -8.421904 -0.000000 8.421904
v -6.737523 -0.000000 8.421904
v -1.684381 -0.000000 8.421904
v 0.000000 -0.000000 8.421904
v 1.684381 -0.000000 8.421904
v 6.737523 -0.000000 8.421904
v 8.421904 -0.000000 8.421904
v -8.421904 -0.000000 6.737523
v -6.737523 -0.000000 6.737523
v -5.053143 -0.000000 6.737523
v -3.368762 -0.000000 6.737523
v -1.684381 -0.000000 6.737523
v 0.000000 -0.000000 6.737523
v 1.684381 -0.000000 6.737523
v 3.368762 -0.000000 6.737523
v 5.053143 -0.000000 6.737523
v 6.737523 -0.000000 6.737523
v 8.421904 -0.000000 6.737523
v -8.421904 -0.000000 5.053143
v -6.737523 -0.000000 4.557361
v -5.053143 -0.000000 4.557361
v -3.368762 -0.000000 4.557361
v -1.684381 -0.000000 4.557361
v 0.000000 -0.000000 5.053143
v 1.684381 -0.000000 4.557361
v 3.368762 -0.000000 4.557361
v 5.053143 -0.000000 4.557361
v 6.737523 -0.000000 4.557361
v 8.421904 -0.000000 5.053143
v -8.421904 -0.000000 3.368762
v -6.737523 -0.000000 3.864543
v -5.053143 -0.000000 3.864543
v -3.368762 -0.000000 3.864543
v -1.684381 -0.000000 3.864543
v 0.000000 -0.000000 3.368762
v 1.684381 -0.000000 3.864543
v 3.368762 -0.000000 3.864543
v 5.053143 -0.000000 3.864543
v 6.737523 -0.000000 3.864543
v 8.421904 -0.000000 3.368762
v -8.421904 -0.000000 1.684381
v -6.737523 -0.000000 1.333912
v -5.053143 -0.000000 1.333912
v -3.368762 -0.000000 1.333912
v -1.684381 -0.000000 1.333912
v 0.000000 -0.000000 1.684381
v 1.684381 -0.000000 1.333912
v 3.368762 -0.000000 1.333912
v 5.053143 -0.000000 1.333912
v 6.737523 -0.000000 1.333912
v 8.421904 -0.000000 1.684381
v -8.421904 0.000000 0.000000
v -6.737523 0.000000 0.350468
v -5.053143 0.000000 0.350468
v -3.368762 0.000000 0.350468
v -1.684381 0.000000 0.350468
v 0.000000 0.000000 0.000000
v 1.684381 0.000000 0.350468
v 3.368762 0.000000 0.350468
v 5.053143 0.000000 0.350468
v 6.737523 0.000000 0.350468
v 8.421904 0.000000 0.000000
v -8.421904 0.000000 -1.684381
v -6.737523 0.000000 -2.039215
v -5.053143 0.000000 -2.039215
v -3.368762 0.000000 -2.039215
v -1.684381 0.000000 -2.039215
v 0.000000 0.000000 -1.684381
v 1.684381 0.000000 -2.039215
v 3.368762 0.000000 -2.039215
v 5.053143 0.000000 -2.039215
v 6.737523 0.000000 -2.039215
v 8.421904 0.000000 -1.684381
v -8.421904 0.000000 -3.368762
v -6.737523 0.000000 -3.013929
v -5.053143 0.000000 -3.013929
v -3.368762 0.000000 -3.013929
v -1.684381 0.000000 -3.013929
v 0.000000 0.000000 -3.368762
v 1.684381 0.000000 -3.013929
v 3.368762 0.000000 -3.013929
v 5.053143 0.000000 -3.013929
v 6.737523 0.000000 -3.013929
v 8.421904 0.000000 -3.368762
v -8.421904 0.000000 -5.053143
v -6.737523 0.000000 -5.399246
v -5.053143 0.000000 -5.399246
v -3.368762 0.000000 -5.399246
v -1.684381 0.000000 -5.399246
v 0.000000 0.000000 -5.053143
v 1.684381 0.000000 -5.399246
v 3.368762 0.000000 -5.399246
v 5.053143 0.000000 -5.399246
v 6.737523 0.000000 -5.399246
v 8.421904 0.000000 -5.053143
v -8.421904 0.000000 -6.737523
v -6.737523 0.000000 -6.391420
v -5.053143 0.000000 -6.391420
v -3.368762 0.000000 -6.391420
v -1.684381 0.000000 -6.391420
v 0.000000 0.000000 -6.737523
v 1.684381 0.000000 -6.391420
v 3.368762 0.000000 -6.391420
v 5.053143 0.000000 -6.391420
v 6.737523 0.000000 -6.391420
v 8.421904 0.000000 -6.737523
v -8.421904 0.000000 -8.421904
v -6.737523 0.000000 -8.421904
v -5.053143 0.000000 -8.421904
v -3.368762 0.000000 -8.421904
v -1.684381 0.000000 -8.421904
v 0.000000 0.000000 -8.421904
v 1.684381 0.000000 -8.421904
v 3.368762 0.000000 -8.421904
v 5.053143 0.000000 -8.421904
v 6.737523 0.000000 -8.421904
v 8.421904 0.000000 -8.421904
vt 0.000000 0.000000
vt 0.100000 0.000000
vt 0.400000 0.000000
vt 0.500000 0.000000
vt 0.600000 0.000000
vt 0.900000 0.000000
vt 1.000000 0.000000
vt 0.000000 0.100000
vt 0.100000 0.100000
vt 0.200000 0.100000
vt 0.300000 0.100000
vt 0.400000 0.100000
vt 0.500000 0.100000
vt 0.600000 0.100000
vt 0.700000 0.100000
vt 0.800000 0.100000
vt 0.900000 0.100000
vt 1.000000 0.100000
vt 0.000000 0.200000
vt 0.100000 0.200000
vt 0.200000 0.200000
vt 0.300000 0.200000
vt 0.400000 0.200000
vt 0.500000 0.200000
vt 0.600000 0.200000
vt 0.700000 0.200000
vt 0.800000 0.200000
vt 0.900000 0.200000
vt 1.000000 0.200000
vt 0.000000 0.300000
vt 0.100000 0.300000
vt 0.200000 0.300000
vt 0.300000 0.300000
vt 0.400000 0.300000
vt 0.500000 0.300000
vt 0.600000 0.300000
vt 0.700000 0.300000
vt 0.800000 0.300000
vt 0.900000 0.300000
vt 1.000000 0.300000
vt 0.000000 0.400000
vt 0.100000 0.400000
vt 0.200000 0.400000
vt 0.300000 0.400000
vt 0.400000 0.400000
vt 0.500000 0.400000
vt 0.600000 0.400000
vt 0.700000 0.400000
vt 0.800000 0.400000
vt 0.900000 0.400000
vt 1.000000 0.400000
vt 0.000000 0.500000
vt 0.100000 0.500000
vt 0.200000 0.500000
vt 0.300000 0.500000
vt 0.400000 0.500000
vt 0.500000 0.500000
vt 0.600000 0.500000
vt 0.700000 0.500000
vt 0.800000 0.500000
vt 0.900000 0.500000
vt 1.000000 0.500000
vt 0.000000 0.600000
vt 0.100000 0.600000
vt 0.200000 0.600000
vt 0.300000 0.600000
vt 0.400000 0.600000
vt 0.500000 0.600000
vt 0.600000 0.600000
vt 0.700000 0.600000
vt 0.800000 0.600000
vt 0.900000 0.600000
vt 1.000000 0.600000
vt 0.000000 0.700000
vt 0.100000 0.700000
vt 0.200000 0.700000
vt 0.300000 0.700000
vt 0.400000 0.700000
vt 0.500000 0.700000
vt 0.600000 0.700000
vt 0.700000 0.700000
vt 0.800000 0.700000
vt 0.900000 0.700000
vt 1.000000 0.700000
vt 0.000000 0.800000
vt 0.100000 0.800000
vt 0.200000 0.800000
vt 0.300000 0.800000
vt 0.400000 0.800000
vt 0.500000 0.800000
vt 0.600000 0.800000
vt 0.700000 0.800000
vt 0.800000 0.800000
vt 0.900000 0.800000
vt 1.000000 0.800000
vt 0.000000 0.900000
vt 0.100000 0.900000
vt 0.200000 0.900000
vt 0.300000 0.900000
vt 0.400000 0.900000
vt 0.500000 0.900000
vt 0.600000 0.900000
vt 0.700000 0.900000
vt 0.800000 0.900000
vt 0.900000 0.900000
vt 1.000000 0.900000
vt 0.000000 1.000000
vt 0.100000 1.000000
vt 0.200000 1.000000
vt 0.300000 1.000000
vt 0.400000 1.000000
vt 0.500000 1.000000
vt 0.600000 1.000000
vt 0.700000 1.000000
vt 0.800000 1.000000
vt 0.900000 1.000000
vt 1.000000 1.000000
vn 0.000000 1.000000 0.000000
vn 0.000000 1.000000 0.000000
vn 0.000000 1.000000 0.000000
vn 0.000000 1.000000 0.000000
vn 0.000000 1.000000 0.000000
vn 0.000000 1.000000 0.000000
vn 0.000000 1.000000 0.000000
vn -0.000000 1.000000 0.000000
vn 0.000000 1.000000 0.000000
vn 0.000000 1.000000 0.000000
vn 0.000000 1.000000 0.000000
vn 0.000000 1.000000 0.000000
vn -0.000000 1.000000 0.000000
vn -0.000000 1.000000 0.000000
vn 0.000000 1.000000 0.000000
vn 0.000000 1.000000 0.000000
vn 0.000000 1.000000 0.000000
vn 0.000000 1.000000 0.000000
vn 0.000000 1.000000 0.000000
vn 0.000000 1.000000 0.000000
vn -0.000000 1.000000 0.000000
vn 0.000000 1.000000 0.000000
vn 0.000000 1.000000 0.000000
vn 0.000000 1.000000 0.000000
vn 0.000000 1.000000 0.000000
vn 0.000000 1.000000 0.000000
vn 0.000000 1.000000 0.000000
vn -0.000000 1.000000 0.000000
vn -0.000000 1.000000 0.000000
vn -0.000000 1.000000 0.000000
vn -0.000000 1.000000 0.000000
vn -0.000000 1.000000 0.000000
vn 0.000000 1.000000 0.000000
vn -0.000000 1.000000 0.000000
vn 0.000000 1.000000 0.000000
vn 0.000000 1.000000 0.000000
vn -0.000000 1.000000 0.000000
vn -0.000000 1.000000 0.000000
vn 0.000000 1.000000 0.000000
vn 0.000000 1.000000 0.000000
vn 0.000000 1.000000 0.000000
vn 0.000000 1.000000 0.000000
vn 0.000000 1.000000 0.000000
vn -0.000000 1.000000 0.000000
vn -0.000000 1.000000 0.000000
vn 0.000000 1.000000 0.000000
vn 0.000000 1.000000 0.000000
vn 0.000000 1.000000 0.000000
vn 0.000000 1.000000 0.000000
vn 0.000000 1.000000 0.000000
vn 0.000000 1.000000 0.000000
vn 0.000000 1.000000 0.000000
vn 0.000000 1.000000 0.000000
vn 0.000000 1.000000 0.000000
vn -0.000000 1.000000 0.000000
vn 0.000000 1.000000 0.000000
vn -0.000000 1.000000 0.000000
vn -0.000000 1.000000 0.000000
vn 0.000000 1.000000 0.000000
vn 0.000000 1.000000 0.000000
vn 0.000000 1.000000 0.000000
vn 0.000000 1.000000 0.000000
vn 0.000000 1.000000 0.000000
vn 0.000000 1.000000 0.000000
vn -0.000000 1.000000 0.000000
vn 0.000000 1.000000 0.000000
vn 0.000000 1.000000 0.000000
vn 0.000000 1.000000 0.000000
vn 0.000000 1.000000 0.000000
vn 0.000000 1.000000 0.000000
vn 0.000000 1.000000 0.000000
vn -0.000000 1.000000 0.000000
vn -0.000000 1.000000 0.000000
vn -0.000000 1.000000 0.000000
vn -0.000000 1.000000 0.000000
vn 0.000000 1.000000 0.000000
vn 0.000000 1.000000 0.000000
vn -0.000000 1.000000 0.000000
vn 0.000000 1.000000 0.000000
vn 0.000000 1.000000 0.000000
vn -0.000000 1.000000 0.000000
vn -0.000000 1.000000 0.000000
vn 0.000000 1.000000 0.000000
vn 0.000000 1.000000 0.000000
vn 0.000000 1.000000 0.000000
vn 0.000000 1.000000 0.000000
vn 0.000000 1.000000 0.000000
vn 0.000000 1.000000 0.000000
vn -0.000000 1.000000 0.000000
vn 0.000000 1.000000 0.000000
vn 0.000000 1.000000 0.000000
vn 0.000000 1.000000 0.000000
vn 0.000000 1.000000 0.000000
vn 0.000000 1.000000 0.000000
vn 0.000000 1.000000 0.000000
vn -0.000000 1.000000 0.000000
vn -0.000000 1.000000 0.000000
vn 0.000000 1.000000 0.000000
vn 0.000000 1.000000 0.000000
vn -0.000000 1.000000 0.000000
vn 0.000000 1.000000 0.000000
vn 0.000000 1.000000 0.000000
vn -0.000000 1.000000 0.000000
vn -0.000000 1.000000 0.000000
vn 0.000000 1.000000 0.000000
vn 0.000000 1.000000 0.000000
vn 0.000000 1.000000 0.000000
vn 0.000000 1.000000 0.000000
vn 0.000000 1.000000 0.000000
vn 0.000000 1.000000 0.000000
vn -0.000000 1.000000 0.000000
vn 0.000000 1.000000 0.000000
vn 0.000000 1.000000 0.000000
vn 0.000000 1.000000 0.000000
vn 0.000000 1.000000 0.000000
vn 0.000000 1.000000 0.000000
vn 0.000000 1.000000 0.000000
s 1
g Road
usemtl initialShadingGroup
f 1/1/1 2/2/2 9/9/3 8/8/4
f 3/3/5 4/4/6 13/13/7 12/12/8
f 4/4/6 5/5/9 14/14/10 13/13/7
f 6/6/11 7/7/12 18/18/13 17/17/14
f 8/8/4 9/9/3 20/20/15 19/19/16
f 9/9/3 10/10/17 21/21/18 20/20/15
f 10/10/17 11/11/19 22/22/20 21/21/18
f 11/11/19 12/12/8 23/23/21 22/22/20
f 12/12/8 13/13/7 24/24/22 23/23/21
f 13/13/7 14/14/10 25/25/23 24/24/22
f 14/14/10 15/15/24 26/26/25 25/25/23
f 15/15/24 16/16/26 27/27/27 26/26/25
f 16/16/26 17/17/14 28/28/28 27/27/27
f 17/17/14 18/18/13 29/29/29 28/28/28
f 19/19/16 20/20/15 31/31/30 30/30/31
f 23/23/21 24/24/22 35/35/32 34/34/33
f 24/24/22 25/25/23 36/36/34 35/35/32
f 28/28/28 29/29/29 40/40/35 39/39/36
f 30/30/31 31/31/30 42/42/37 41/41/38
f 31/31/30 32/32/39 43/43/40 42/42/37
f 32/32/39 33/33/41 44/44/42 43/43/40
f 33/33/41 34/34/33 45/45/43 44/44/42
f 34/34/33 35/35/32 46/46/44 45/45/43
f 35/35/32 36/36/34 47/47/45 46/46/44
f 36/36/34 37/37/46 48/48/47 47/47/45
f 37/37/46 38/38/48 49/49/49 48/48/47
f 38/38/48 39/39/36 50/50/50 49/49/49
f 39/39/36 40/40/35 51/51/51 50/50/50
f 41/41/38 42/42/37 53/53/52 52/52/53
f 45/45/43 46/46/44 57/57/54 56/56/55
f 46/46/44 47/47/45 58/58/56 57/57/54
f 50/50/50 51/51/51 62/62/57 61/61/58
f 52/52/53 53/53/52 64/64/59 63/63/60
f 53/53/52 54/54/61 65/65/62 64/64/59
f 54/54/61 55/55/63 66/66/64 65/65/62
f 55/55/63 56/56/55 67/67/65 66/66/64
f 56/56/55 57/57/54 68/68/66 67/67/65
f 57/57/54 58/58/56 69/69/67 68/68/66
f 58/58/56 59/59/68 70/70/69 69/69/67
f 59/59/68 60/60/70 71/71/71 70/70/69
f 60/60/70 61/61/58 72/72/72 71/71/71
f 61/61/58 62/62/57 73/73/73 72/72/72
f 63/63/60 64/64/59 75/75/74 74/74/75
f 67/67/65 68/68/66 79/79/76 78/78/77
f 68/68/66 69/69/67 80/80/78 79/79/76
f 72/72/72 73/73/73 84/84/79 83/83/80
f 74/74/75 75/75/74 86/86/81 85/85/82
f 75/75/74 76/76/83 87/87/84 86/86/81
f 76/76/83 77/77/85 88/88/86 87/87/84
f 77/77/85 78/78/77 89/89/87 88/88/86
f 78/78/77 79/79/76 90/90/88 89/89/87
f 79/79/76 80/80/78 91/91/89 90/90/88
f 80/80/78 81/81/90 92/92/91 91/91/89
f 81/81/90 82/82/92 93/93/93 92/92/91
f 82/82/92 83/83/80 94/94/94 93/93/93
f 83/83/80 84/84/79 95/95/95 94/94/94
f 85/85/82 86/86/81 97/97/96 96/96/97
f 89/89/87 90/90/88 101/101/98 100/100/99
f 90/90/88 91/91/89 102/102/100 101/101/98
f 94/94/94 95/95/95 106/106/101 105/105/102
f 96/96/97 97/97/96 108/108/103 107/107/104
f 97/97/96 98/98/105 109/109/106 108/108/103
f 98/98/105 99/99/107 110/110/108 109/109/106
f 99/99/107 100/100/99 111/111/109 110/110/108
f 100/100/99 101/101/98 112/112/110 111/111/109
f 101/101/98 102/102/100 113/113/111 112/112/110
f 102/102/100 103/103/112 114/114/113 113/113/111
f 103/103/112 104/104/114 115/115/115 114/114/113
f 104/104/114 105/105/102 116/116/116 115/115/115
f 105/105/102 106/106/101 117/117/117 116/116/116
